<mxfile host="Electron" modified="2024-07-02T20:18:09.709Z" agent="Mozilla/5.0 (Windows NT 10.0; Win64; x64) AppleWebKit/537.36 (KHTML, like Gecko) draw.io/24.5.3 Chrome/124.0.6367.207 Electron/30.0.6 Safari/537.36" etag="605aj1itSh1MpdRYDvO9" version="24.5.3" type="device">
  <diagram name="Страница — 1" id="KV8VrF_wndUaWUfDwR8V">
    <mxGraphModel dx="1147" dy="675" grid="1" gridSize="10" guides="1" tooltips="1" connect="1" arrows="1" fold="1" page="1" pageScale="1" pageWidth="827" pageHeight="1169" math="0" shadow="0">
      <root>
        <mxCell id="0" />
        <mxCell id="1" parent="0" />
        <mxCell id="mcTBSYW5HjbO0yiKAc-_-75" value="&lt;div style=&quot;&quot;&gt;&lt;font face=&quot;sans-serif&quot; color=&quot;#202122&quot;&gt;&lt;span style=&quot;font-size: 14px; background-color: rgb(255, 255, 255);&quot;&gt;&lt;b&gt;&amp;lt;&amp;lt;component&amp;gt;&amp;gt;&lt;/b&gt;&lt;/span&gt;&lt;/font&gt;&lt;/div&gt;&lt;div style=&quot;&quot;&gt;&lt;font face=&quot;sans-serif&quot; color=&quot;#202122&quot;&gt;&lt;span style=&quot;font-size: 14px; background-color: rgb(255, 255, 255);&quot;&gt;&lt;b&gt;Hello IT&amp;nbsp;&lt;/b&gt;&lt;/span&gt;&lt;/font&gt;&lt;span style=&quot;background-color: initial; font-size: 14px;&quot;&gt;&lt;font face=&quot;sans-serif&quot; color=&quot;#202122&quot;&gt;&lt;b&gt;Quantum&lt;/b&gt;&lt;/font&gt;&lt;/span&gt;&lt;/div&gt;" style="html=1;dropTarget=0;whiteSpace=wrap;verticalAlign=top;align=center;" parent="1" vertex="1">
          <mxGeometry x="70" y="70" width="400" height="290" as="geometry" />
        </mxCell>
        <mxCell id="mcTBSYW5HjbO0yiKAc-_-76" value="" style="shape=module;jettyWidth=8;jettyHeight=4;" parent="mcTBSYW5HjbO0yiKAc-_-75" vertex="1">
          <mxGeometry x="1" width="20" height="20" relative="1" as="geometry">
            <mxPoint x="-27" y="7" as="offset" />
          </mxGeometry>
        </mxCell>
        <mxCell id="XSD89v2sd5AMPWhh1na2-10" style="edgeStyle=orthogonalEdgeStyle;rounded=0;orthogonalLoop=1;jettySize=auto;html=1;exitX=1;exitY=0.5;exitDx=0;exitDy=0;endArrow=halfCircle;endFill=0;" parent="1" source="D7GgWBgCCA7Km44ftOsy-62" edge="1">
          <mxGeometry relative="1" as="geometry">
            <mxPoint x="500" y="175" as="targetPoint" />
            <Array as="points">
              <mxPoint x="490" y="175" />
            </Array>
          </mxGeometry>
        </mxCell>
        <mxCell id="D7GgWBgCCA7Km44ftOsy-62" value="Клиентское приложение" style="html=1;dropTarget=0;whiteSpace=wrap;labelBackgroundColor=none;fontColor=default;" parent="1" vertex="1">
          <mxGeometry x="180" y="130" width="180" height="90" as="geometry" />
        </mxCell>
        <mxCell id="D7GgWBgCCA7Km44ftOsy-63" value="" style="shape=module;jettyWidth=8;jettyHeight=4;labelBackgroundColor=none;fontColor=default;" parent="D7GgWBgCCA7Km44ftOsy-62" vertex="1">
          <mxGeometry x="1" width="20" height="20" relative="1" as="geometry">
            <mxPoint x="-27" y="7" as="offset" />
          </mxGeometry>
        </mxCell>
        <mxCell id="D7GgWBgCCA7Km44ftOsy-66" value="&lt;b&gt;NuGet&lt;span style=&quot;border-color: var(--border-color); font-family: sans-serif; font-size: 14px; text-align: start;&quot;&gt;&amp;nbsp;&lt;/span&gt;&lt;/b&gt;" style="html=1;dropTarget=0;whiteSpace=wrap;labelBackgroundColor=none;fontColor=default;" parent="1" vertex="1">
          <mxGeometry x="280" y="260" width="180" height="90" as="geometry" />
        </mxCell>
        <mxCell id="D7GgWBgCCA7Km44ftOsy-67" value="" style="shape=module;jettyWidth=8;jettyHeight=4;labelBackgroundColor=none;fontColor=default;" parent="D7GgWBgCCA7Km44ftOsy-66" vertex="1">
          <mxGeometry x="1" width="20" height="20" relative="1" as="geometry">
            <mxPoint x="-27" y="7" as="offset" />
          </mxGeometry>
        </mxCell>
        <mxCell id="D7GgWBgCCA7Km44ftOsy-71" value="&lt;div style=&quot;text-align: start;&quot;&gt;&lt;b&gt;.NET&lt;/b&gt;&lt;/div&gt;" style="html=1;dropTarget=0;whiteSpace=wrap;labelBackgroundColor=none;fontColor=default;" parent="1" vertex="1">
          <mxGeometry x="80" y="260" width="180" height="90" as="geometry" />
        </mxCell>
        <mxCell id="D7GgWBgCCA7Km44ftOsy-72" value="" style="shape=module;jettyWidth=8;jettyHeight=4;labelBackgroundColor=none;fontColor=default;" parent="D7GgWBgCCA7Km44ftOsy-71" vertex="1">
          <mxGeometry x="1" width="20" height="20" relative="1" as="geometry">
            <mxPoint x="-27" y="7" as="offset" />
          </mxGeometry>
        </mxCell>
        <mxCell id="D7GgWBgCCA7Km44ftOsy-81" style="rounded=0;orthogonalLoop=1;jettySize=auto;html=1;exitX=0.221;exitY=1.01;exitDx=0;exitDy=0;dashed=1;labelBackgroundColor=none;fontColor=default;entryX=0.5;entryY=0;entryDx=0;entryDy=0;exitPerimeter=0;" parent="1" source="D7GgWBgCCA7Km44ftOsy-62" target="D7GgWBgCCA7Km44ftOsy-71" edge="1">
          <mxGeometry relative="1" as="geometry">
            <mxPoint x="295" y="260" as="sourcePoint" />
            <mxPoint x="240" y="225" as="targetPoint" />
          </mxGeometry>
        </mxCell>
        <mxCell id="XSD89v2sd5AMPWhh1na2-14" style="edgeStyle=orthogonalEdgeStyle;rounded=0;orthogonalLoop=1;jettySize=auto;html=1;endArrow=circle;endFill=0;" parent="1" source="XSD89v2sd5AMPWhh1na2-1" edge="1">
          <mxGeometry relative="1" as="geometry">
            <mxPoint x="500" y="175" as="targetPoint" />
          </mxGeometry>
        </mxCell>
        <mxCell id="XSD89v2sd5AMPWhh1na2-1" value="user.csv" style="html=1;dropTarget=0;whiteSpace=wrap;labelBackgroundColor=none;fontColor=default;" parent="1" vertex="1">
          <mxGeometry x="550" y="130" width="180" height="90" as="geometry" />
        </mxCell>
        <mxCell id="XSD89v2sd5AMPWhh1na2-2" value="" style="shape=module;jettyWidth=8;jettyHeight=4;labelBackgroundColor=none;fontColor=default;" parent="XSD89v2sd5AMPWhh1na2-1" vertex="1">
          <mxGeometry x="1" width="20" height="20" relative="1" as="geometry">
            <mxPoint x="-27" y="7" as="offset" />
          </mxGeometry>
        </mxCell>
        <mxCell id="XSD89v2sd5AMPWhh1na2-11" style="rounded=0;orthogonalLoop=1;jettySize=auto;html=1;exitX=0.75;exitY=1;exitDx=0;exitDy=0;dashed=1;labelBackgroundColor=none;fontColor=default;entryX=0.5;entryY=0;entryDx=0;entryDy=0;" parent="1" source="D7GgWBgCCA7Km44ftOsy-62" target="D7GgWBgCCA7Km44ftOsy-66" edge="1">
          <mxGeometry relative="1" as="geometry">
            <mxPoint x="240" y="230" as="sourcePoint" />
            <mxPoint x="160" y="280" as="targetPoint" />
          </mxGeometry>
        </mxCell>
        <mxCell id="JM9p36eBlhMmlXUEL-Hn-1" value="" style="group" vertex="1" connectable="0" parent="1">
          <mxGeometry x="50" y="20" width="710" height="390" as="geometry" />
        </mxCell>
        <mxCell id="JM9p36eBlhMmlXUEL-Hn-27" value="Обучающая программа для детей HelloItQuantum" style="shape=umlFrame;whiteSpace=wrap;html=1;pointerEvents=0;width=460;height=30;" vertex="1" parent="JM9p36eBlhMmlXUEL-Hn-1">
          <mxGeometry x="-20" width="720" height="373.69" as="geometry" />
        </mxCell>
      </root>
    </mxGraphModel>
  </diagram>
</mxfile>
